<?xml version="1.0" standalone="no"?>
<!DOCTYPE svg PUBLIC "-//W3C//DTD SVG 20010904//EN"
 "http://www.w3.org/TR/2001/REC-SVG-20010904/DTD/svg10.dtd">
<svg version="1.0" xmlns="http://www.w3.org/2000/svg"
 width="16.000000pt" height="16.000000pt" viewBox="0 0 16.000000 16.000000"
 preserveAspectRatio="xMidYMid meet">
<metadata>
Created by potrace 1.11, written by Peter Selinger 2001-2013
</metadata>
<g transform="translate(0.000000,16.000000) scale(0.001563,-0.001563)"
fill="#000000" stroke="none">
<path d="M4890 9440 c-147 -11 -267 -26 -405 -51 -676 -123 -1216 -448 -1408
-846 l-39 -82 -393 -318 -392 -318 -232 -1113 c-128 -612 -230 -1120 -227
-1128 3 -8 47 -61 98 -118 92 -103 93 -104 106 -80 11 22 19 24 80 24 l68 0
17 -480 c14 -430 18 -485 35 -524 22 -48 72 -92 122 -106 42 -12 2319 65 2373
80 44 13 101 60 125 104 18 35 19 80 7 404 l-7 192 292 0 292 0 -6 -27 c-2
-16 -8 -139 -11 -274 -7 -233 -6 -249 13 -292 25 -56 87 -104 145 -112 23 -3
556 -23 1185 -45 1260 -44 1179 -45 1245 18 63 60 63 62 77 507 6 187 13 377
16 423 l6 82 58 0 57 0 17 -45 c10 -25 21 -45 24 -45 4 0 56 49 116 109 l110
110 -233 1118 -233 1118 -422 425 c-340 343 -430 439 -466 499 -58 96 -215
255 -340 343 -112 80 -394 223 -535 272 -230 80 -471 134 -710 160 -179 19
-477 27 -625 16z m-1327 -2104 c296 -185 640 -304 1065 -367 176 -27 607 -37
803 -20 442 39 871 166 1182 348 l68 40 314 -101 c173 -56 319 -106 324 -111
21 -23 558 -1015 591 -1094 59 -136 59 -129 3 -119 -86 16 -2309 88 -2351 76
-50 -14 -117 -83 -130 -133 -6 -22 -13 -125 -16 -230 -4 -104 -9 -241 -12
-302 l-6 -113 -292 0 -292 0 -11 318 c-10 291 -13 322 -32 360 -23 45 -68 83
-118 100 -47 16 -2320 -63 -2383 -83 -24 -7 -45 -13 -46 -12 -1 1 30 74 70
162 58 130 599 1138 626 1168 7 8 514 176 533 177 5 0 55 -29 110 -64z m-1423
-1756 l0 -110 -50 0 c-27 0 -50 2 -50 5 0 9 92 215 96 215 2 0 4 -49 4 -110z
m6020 -156 c0 -2 -20 -4 -45 -4 l-45 0 0 64 c0 35 3 78 7 96 6 31 8 29 45 -60
21 -51 38 -94 38 -96z"/>
<path d="M1830 5010 c-18 -18 -20 -33 -20 -160 0 -186 -6 -180 175 -180 74 0
135 3 135 8 0 18 -41 328 -45 340 -3 8 -35 12 -115 12 -97 0 -112 -2 -130 -20z"/>
<path d="M2200 3163 c0 -406 3 -748 6 -759 9 -32 46 -44 139 -44 l85 0 0 -53
c0 -153 41 -416 82 -524 37 -96 153 -195 322 -273 94 -44 165 -62 329 -86 103
-16 120 -16 128 -3 17 26 5 44 -31 47 -79 7 -270 43 -323 61 -153 53 -323 173
-361 256 -31 68 -53 158 -70 301 -24 198 -27 274 -10 274 8 0 26 11 39 25 l25
24 0 330 0 330 -75 145 c-81 157 -207 459 -249 599 -15 48 -29 87 -31 87 -3 0
-5 -332 -5 -737z"/>
<path d="M4745 1450 c-7 -14 -25 -54 -40 -89 -14 -35 -62 -117 -106 -183 l-80
-118 44 -19 c197 -84 563 -234 571 -234 12 1 594 267 602 276 3 3 -29 51 -71
107 -52 69 -89 131 -115 193 l-39 92 -53 -3 c-29 -2 -116 -7 -193 -12 -97 -6
-196 -6 -323 3 l-184 12 -13 -25z"/>
</g>
</svg>
